<?xml version="1.0" encoding="UTF-8" standalone="no"?>
<svg
   viewBox="0 0 793.70079 1122.5197"
   width="793.70081"
   height="1122.5197"
   version="1.1"
   id="svg697"
   xmlns="http://www.w3.org/2000/svg"
   xmlns:svg="http://www.w3.org/2000/svg">
  <desc
     id="desc652">Top_Cover.dxf - scale = 1.000000, origin = (0.000000, 0.000000), method = manual</desc>
  <defs
     id="defs667" />
  <g
     id="g695">
    <path
       d="m 161.24821,232.92688 h -19.36588 l -7.3e-4,26.46949 h -14.66606 v 18.89764 h 14.66555 l -5.2e-4,18.89764 h -14.66503 v 18.89764 h 14.66452 l -5.2e-4,18.89763 h -14.664 v 18.89764 h 14.66348 l -5.1e-4,18.89764 h -14.66297 v 18.89764 h 14.66245 l -5.1e-4,18.89764 h -14.66194 v 18.89763 h 14.66142 l -5.2e-4,18.89764 h -14.6609 v 18.89764 h 14.66039 l -5.2e-4,18.89764 h -14.65987 v 18.89763 h 14.65936 l -5.2e-4,18.89764 h -14.65884 v 18.89764 h 14.65832 l -5.1e-4,18.89764 h -14.65781 v 18.89764 h 14.65729 l -5.1e-4,18.89763 h -14.65678 v 18.89764 h 14.65626 l -5.2e-4,18.89764 h -14.65574 v 18.89764 h 14.65523 l -5.2e-4,18.89763 h -14.65471 v 18.89764 h 14.6542 l -5.2e-4,18.89764 h -14.65368 v 18.89764 h 14.65316 l -5.1e-4,18.89764 h -14.65265 v 18.89763 h 14.65213 l -5.1e-4,18.89764 h -14.65162 v 18.89764 h 14.6511 l -5.2e-4,18.89765 h -14.65058 v 18.8976 h 14.65007 l -5.2e-4,18.8977 h -14.64955 v 18.8976 h 30.23622 v -14.5107 l 18.89764,6e-4 v 14.5101 h 18.89764 v -14.5096 l 18.89763,5e-4 v 14.5091 h 18.89764 v -14.5086 l 18.89764,5e-4 v 14.5081 h 18.89764 v -14.5076 l 18.89763,6e-4 v 14.507 h 18.89764 v -14.5065 l 18.89764,5e-4 v 14.506 h 18.89764 v -14.5055 l 18.89764,5e-4 v 14.505 h 18.89763 v -14.5045 l 18.89764,6e-4 v 14.5039 h 18.89764 v -14.5034 l 18.89764,5e-4 v 14.5029 h 18.89763 v -14.5024 l 18.89764,5e-4 v 14.5019 h 18.89764 v -14.5014 l 18.89764,6e-4 v 14.5008 h 18.89764 v -14.5003 l 18.89763,5e-4 v 14.4998 h 18.89764 v -14.4993 l 18.89764,5e-4 v 14.4988 h 19.36589 l 7.2e-4,-26.4571 h 14.66606 v -18.8976 h -14.66555 l 5.2e-4,-18.8977 H 626.1301 V 799.8684 h -14.66451 l 5.1e-4,-18.89764 h 14.664 v -18.89763 h -14.66348 l 5.1e-4,-18.89764 h 14.66297 v -18.89764 h -14.66245 l 5.2e-4,-18.89764 h 14.66193 v -18.89764 h -14.66142 l 5.2e-4,-18.89763 h 14.6609 V 648.6873 h -14.66039 l 5.2e-4,-18.89764 h 14.65987 v -18.89764 h -14.65935 l 5.1e-4,-18.89763 h 14.65884 v -18.89764 h -14.65832 l 5.1e-4,-18.89764 h 14.65781 v -18.89764 h -14.65729 l 5.2e-4,-18.89764 H 626.1301 V 497.5062 h -14.65626 l 5.2e-4,-18.89764 h 14.65574 v -18.89764 h -14.65523 l 5.2e-4,-18.89764 h 14.65471 v -18.89763 h -14.65419 l 5.1e-4,-18.89764 h 14.65368 v -18.89764 h -14.65316 l 5.1e-4,-18.89764 h 14.65265 v -18.89764 h -14.65213 l 5.2e-4,-18.89763 H 626.1301 V 308.52982 H 611.479 l 5.2e-4,-18.89764 h 14.65058 v -18.89764 h -14.65007 l 5.2e-4,-18.89763 h 14.64955 v -18.89764 h -30.23622 v 14.49827 l -18.89764,-5.2e-4 v -14.49878 h -18.89763 v 14.49826 l -18.89764,-5.1e-4 V 232.9372 h -18.89764 v 14.49827 l -18.89764,-5.1e-4 v -14.49879 h -18.89764 v 14.49827 l -18.89763,-5.2e-4 v -14.49878 h -18.89764 v 14.49827 l -18.89764,-5.2e-4 V 232.93411 H 406.9175 v 14.49827 l -18.89763,-5.2e-4 v -14.49878 h -18.89764 v 14.49826 l -18.89764,-5.1e-4 v -14.49879 h -18.89764 v 14.49827 l -18.89764,-5.1e-4 v -14.49879 h -18.89763 v 14.49827 l -18.89764,-5.2e-4 V 232.92998 H 255.7364 v 14.49827 l -18.89764,-5.2e-4 v -14.49878 h -18.89763 v 14.49827 l -18.89764,-5.2e-4 v -14.49878 h -18.89764 v 14.49826 l -18.89764,-5.1e-4 z"
       style="fill:none;stroke:#000000"
       id="path669" />
    <path
       d="m 295.8628,633.71041 a 64.56756,64.56756 0 0 0 -129.13512,0 64.56756,64.56756 0 0 0 129.13512,0 z"
       style="fill:none;stroke:#000000"
       id="path671" />
    <path
       d="m 295.87107,330.74349 a 64.56756,64.56756 0 0 0 -129.13512,0 64.56756,64.56756 0 0 0 129.13512,0 z"
       style="fill:none;stroke:#000000"
       id="path673" />
    <path
       d="m 440.91649,330.74745 a 64.56756,64.56756 0 0 0 -129.13512,0 64.56756,64.56756 0 0 0 129.13512,0 z"
       style="fill:none;stroke:#000000"
       id="path675" />
    <path
       d="m 585.96191,330.75141 a 64.56756,64.56756 0 0 0 -129.13512,0 64.56756,64.56756 0 0 0 129.13512,0 z"
       style="fill:none;stroke:#000000"
       id="path677" />
    <path
       d="m 585.95363,633.71834 a 64.56756,64.56756 0 0 0 -129.13512,0 64.56756,64.56756 0 0 0 129.13512,0 z"
       style="fill:none;stroke:#000000"
       id="path679" />
    <path
       d="m 440.90822,633.71438 a 64.56756,64.56756 0 0 0 -129.13512,0 64.56756,64.56756 0 0 0 129.13512,0 z"
       style="fill:none;stroke:#000000"
       id="path681" />
    <path
       d="m 440.91235,482.23091 a 64.56756,64.56756 0 0 0 -129.13512,0 64.56756,64.56756 0 0 0 129.13512,0 z"
       style="fill:none;stroke:#000000"
       id="path683" />
    <path
       d="m 585.95777,482.23487 a 64.56756,64.56756 0 0 0 -129.13512,0 64.56756,64.56756 0 0 0 129.13512,0 z"
       style="fill:none;stroke:#000000"
       id="path685" />
    <path
       d="m 295.86693,482.22695 a 64.567559,64.567559 0 0 0 -129.13511,0 64.567559,64.567559 0 0 0 129.13511,0 z"
       style="fill:none;stroke:#000000"
       id="path687" />
    <path
       d="m 585.9495,785.2018 a 64.56756,64.56756 0 0 0 -129.13512,0 64.56756,64.56756 0 0 0 129.13512,0 z"
       style="fill:none;stroke:#000000"
       id="path689" />
    <path
       d="m 295.85866,785.19388 a 64.56756,64.56756 0 0 0 -129.13512,0 64.56756,64.56756 0 0 0 129.13512,0 z"
       style="fill:none;stroke:#000000"
       id="path691" />
    <path
       d="m 440.90408,785.19784 a 64.56756,64.56756 0 0 0 -129.13512,0 64.56756,64.56756 0 0 0 129.13512,0 z"
       style="fill:none;stroke:#000000"
       id="path693" />
  </g>
</svg>
